<svg xmlns="http://www.w3.org/2000/svg" xmlns:xlink="http://www.w3.org/1999/xlink" width="500" zoomAndPan="magnify" viewBox="0 0 375 374.999991" height="500" preserveAspectRatio="xMidYMid meet" version="1.0"><path fill="rgb(0%, 0%, 0%)" d="M 69.839844 49.542969 C 38.371094 59.242188 24.78125 105.773438 39.484375 153.472656 C 54.1875 201.167969 91.617188 231.972656 123.085938 222.269531 C 154.554688 212.570312 168.144531 166.039062 153.441406 118.34375 C 138.738281 70.644531 101.308594 39.839844 69.839844 49.542969 " fill-opacity="1" fill-rule="nonzero"/><path fill="rgb(0%, 9.799194%, 100%)" d="M 78.460938 47.667969 C 46.992188 57.371094 33.402344 103.902344 48.105469 151.597656 C 62.808594 199.296875 100.238281 230.097656 131.707031 220.398438 C 163.175781 210.699219 176.769531 164.167969 162.0625 116.46875 C 147.359375 68.769531 109.929688 37.96875 78.460938 47.667969 " fill-opacity="1" fill-rule="nonzero"/><path fill="rgb(0%, 0%, 0%)" d="M 230.480469 264.152344 C 257.371094 283.15625 302.523438 265.523438 331.335938 224.765625 C 360.144531 184.007812 361.699219 135.558594 334.808594 116.550781 C 307.917969 97.542969 262.765625 115.175781 233.953125 155.933594 C 205.144531 196.695312 203.589844 245.144531 230.480469 264.152344 " fill-opacity="1" fill-rule="nonzero"/><path fill="rgb(0%, 9.799194%, 100%)" d="M 223.734375 258.464844 C 250.625 277.46875 295.777344 259.835938 324.589844 219.078125 C 353.398438 178.320312 354.953125 129.871094 328.0625 110.863281 C 301.171875 91.855469 256.019531 109.488281 227.207031 150.246094 C 198.398438 191.007812 196.84375 239.457031 223.734375 258.464844 " fill-opacity="1" fill-rule="nonzero"/><path fill="rgb(0%, 9.799194%, 100%)" d="M 256.210938 211.925781 C 266.609375 217.941406 282.605469 209.738281 291.9375 193.601562 C 301.269531 177.46875 300.40625 159.511719 290.007812 153.496094 C 279.613281 147.484375 263.617188 155.6875 254.285156 171.820312 C 244.949219 187.957031 245.8125 205.910156 256.210938 211.925781 " fill-opacity="1" fill-rule="nonzero"/><path fill="rgb(0%, 9.799194%, 100%)" d="M 248.75 177.789062 L 236.417969 156.328125 L 265.015625 139.894531 L 277.347656 161.351562 L 248.75 177.789062 " fill-opacity="1" fill-rule="nonzero"/><path fill="rgb(0%, 9.799194%, 100%)" d="M 253.835938 198.84375 L 231.019531 189.253906 L 243.800781 158.84375 L 266.617188 168.433594 L 253.835938 198.84375 " fill-opacity="1" fill-rule="nonzero"/><path fill="rgb(0%, 0%, 0%)" d="M 243.84375 231.246094 C 259.304688 241.652344 284.964844 230.589844 301.15625 206.539062 C 317.347656 182.484375 317.9375 154.546875 302.472656 144.140625 C 287.011719 133.730469 261.351562 144.792969 245.160156 168.847656 C 228.96875 192.898438 228.378906 220.835938 243.84375 231.246094 " fill-opacity="1" fill-rule="nonzero"/><path fill="rgb(0%, 9.799194%, 100%)" d="M 276.921875 135.859375 L 273.496094 187.496094 L 221.863281 184.074219 L 276.921875 135.859375 " fill-opacity="1" fill-rule="nonzero"/><path fill="rgb(0%, 0%, 0%)" d="M 87.65625 86.988281 C 70.660156 94.632812 66.519531 122.269531 78.417969 148.710938 C 90.3125 175.152344 113.734375 190.390625 130.734375 182.742188 C 147.734375 175.097656 151.871094 147.460938 139.976562 121.019531 C 128.078125 94.578125 104.65625 79.339844 87.65625 86.988281 " fill-opacity="1" fill-rule="nonzero"/><path fill="rgb(0%, 9.799194%, 100%)" d="M 151.25 165.398438 L 109.183594 135.257812 L 139.328125 93.191406 L 151.25 165.398438 " fill-opacity="1" fill-rule="nonzero"/><path fill="rgb(100%, 34.118652%, 34.118652%)" d="M 94.679688 81.148438 C 77.679688 88.796875 73.542969 116.433594 85.4375 142.875 C 97.332031 169.316406 120.757812 184.554688 137.753906 176.90625 C 154.753906 169.257812 158.890625 141.625 146.996094 115.183594 C 135.101562 88.738281 111.675781 73.503906 94.679688 81.148438 " fill-opacity="1" fill-rule="nonzero"/><path fill="rgb(0%, 9.799194%, 100%)" d="M 158.269531 159.5625 L 116.207031 129.421875 L 146.347656 87.355469 L 158.269531 159.5625 " fill-opacity="1" fill-rule="nonzero"/><path fill="rgb(100%, 34.118652%, 34.118652%)" d="M 238.820312 224.851562 C 254.28125 235.257812 279.941406 224.199219 296.132812 200.144531 C 312.324219 176.089844 312.914062 148.15625 297.453125 137.746094 C 281.988281 127.335938 256.328125 138.398438 240.136719 162.453125 C 223.945312 186.503906 223.355469 214.441406 238.820312 224.851562 " fill-opacity="1" fill-rule="nonzero"/><path fill="rgb(0%, 9.799194%, 100%)" d="M 271.898438 129.464844 L 268.472656 181.101562 L 216.839844 177.679688 L 271.898438 129.464844 " fill-opacity="1" fill-rule="nonzero"/></svg>